<?xml version="1.0" encoding="UTF-8"?>
<svg id="Layer_2" data-name="Layer 2" xmlns="http://www.w3.org/2000/svg" viewBox="0 0 1056.96 223.8">
  <defs>
    <style>
      .cls-1 {
        fill: #8b5e3c;
        stroke: #231f20;
        stroke-miterlimit: 10;
        stroke-width: .35px;
      }
    </style>
  </defs>
  <g id="Layer_1-2" data-name="Layer 1">
    <g>
      <rect class="cls-1" x=".18" y="111.9" width="57.88" height="111.72"/>
      <rect class="cls-1" x=".18" y=".18" width="57.88" height="111.72"/>
      <rect class="cls-1" x="58.92" y="111.9" width="57.88" height="111.72"/>
      <rect class="cls-1" x="58.92" y=".18" width="57.88" height="111.72"/>
      <rect class="cls-1" x="117.67" y="111.9" width="57.88" height="111.72"/>
      <rect class="cls-1" x="117.67" y=".18" width="57.88" height="111.72"/>
      <rect class="cls-1" x="176.42" y="111.9" width="57.88" height="111.72"/>
      <rect class="cls-1" x="176.42" y=".18" width="57.88" height="111.72"/>
      <rect class="cls-1" x="235.17" y="111.9" width="57.88" height="111.72"/>
      <rect class="cls-1" x="235.17" y=".18" width="57.88" height="111.72"/>
      <rect class="cls-1" x="293.92" y="111.9" width="57.88" height="111.72"/>
      <rect class="cls-1" x="293.92" y=".18" width="57.88" height="111.72"/>
      <rect class="cls-1" x="352.67" y="111.9" width="57.88" height="111.72"/>
      <rect class="cls-1" x="352.67" y=".18" width="57.88" height="111.72"/>
      <rect class="cls-1" x="411.42" y="111.9" width="57.88" height="111.72"/>
      <rect class="cls-1" x="411.42" y=".18" width="57.88" height="111.72"/>
      <rect class="cls-1" x="470.17" y="111.9" width="57.88" height="111.72"/>
      <rect class="cls-1" x="470.17" y=".18" width="57.88" height="111.72"/>
      <rect class="cls-1" x="528.92" y="111.9" width="57.88" height="111.72"/>
      <rect class="cls-1" x="528.92" y=".18" width="57.88" height="111.72"/>
      <rect class="cls-1" x="587.66" y="111.9" width="57.88" height="111.72"/>
      <rect class="cls-1" x="587.66" y=".18" width="57.88" height="111.72"/>
      <rect class="cls-1" x="646.41" y="111.9" width="57.88" height="111.72"/>
      <rect class="cls-1" x="646.41" y=".18" width="57.88" height="111.72"/>
      <rect class="cls-1" x="705.16" y="111.9" width="57.88" height="111.72"/>
      <rect class="cls-1" x="705.16" y=".18" width="57.88" height="111.72"/>
      <rect class="cls-1" x="763.91" y="111.9" width="57.88" height="111.72"/>
      <rect class="cls-1" x="763.91" y=".18" width="57.88" height="111.72"/>
      <rect class="cls-1" x="822.66" y="111.9" width="57.88" height="111.72"/>
      <rect class="cls-1" x="822.66" y=".18" width="57.88" height="111.72"/>
      <rect class="cls-1" x="881.41" y="111.9" width="57.88" height="111.72"/>
      <rect class="cls-1" x="881.41" y=".18" width="57.88" height="111.72"/>
      <rect class="cls-1" x="940.16" y="111.9" width="57.88" height="111.72"/>
      <rect class="cls-1" x="940.16" y=".18" width="57.88" height="111.72"/>
      <rect class="cls-1" x="998.91" y="111.9" width="57.88" height="111.72"/>
      <rect class="cls-1" x="998.91" y=".18" width="57.88" height="111.72"/>
    </g>
  </g>
</svg>