<?xml version="1.0" encoding="UTF-8"?>
<svg id="Layer_2" data-name="Layer 2" xmlns="http://www.w3.org/2000/svg" viewBox="0 0 168.34 26.39">
  <defs>
    <style>
      .cls-1 {
        fill: #231f20;
        stroke-width: 0px;
      }
    </style>
  </defs>
  <g id="Layer_1-2" data-name="Layer 1">
    <g>
      <rect class="cls-1" x="15.52" y="20.8" width="8.22" height="5.59" transform="translate(39.26 47.19) rotate(180)"/>
      <rect class="cls-1" x="15.52" width="8.22" height="5.59" transform="translate(39.26 5.59) rotate(180)"/>
      <g>
        <path class="cls-1" d="m10.19,1.17c.66-.11,1.32-.17,2.01-.17h143.96c.68,0,1.36.05,2.01.17,5.77.96,10.19,5.98,10.19,12.02s-4.41,11.07-10.19,12.02c-.65.11-1.32.17-2.01.17H12.19c-.68,0-1.35-.05-2.01-.17C4.41,24.26,0,19.24,0,13.2S4.41,2.13,10.19,1.17Zm0,20.39c.64.16,1.32.24,2.01.24h143.96c.69,0,1.36-.08,2.01-.24,3.79-.9,6.6-4.31,6.6-8.37s-2.81-7.46-6.6-8.37c-.64-.16-1.32-.24-2.01-.24H12.19c-.69,0-1.36.08-2.01.24-3.79.9-6.6,4.3-6.6,8.37s2.82,7.47,6.6,8.37Z"/>
        <rect class="cls-1" x="144.6" y="20.8" width="8.22" height="5.59"/>
        <rect class="cls-1" x="144.6" width="8.22" height="5.59"/>
      </g>
    </g>
  </g>
</svg>