<?xml version="1.0" encoding="UTF-8"?>
<svg id="Layer_2" data-name="Layer 2" xmlns="http://www.w3.org/2000/svg" viewBox="0 0 1056.61 200.14">
  <defs>
    <style>
      .cls-1 {
        fill: #d4d1cc;
        stroke-width: 0px;
      }
    </style>
  </defs>
  <g id="Layer_1-2" data-name="Layer 1">
    <g>
      <rect class="cls-1" y="100.07" width="57.88" height="100.07"/>
      <rect class="cls-1" width="57.88" height="100.07"/>
      <rect class="cls-1" x="58.75" y="100.07" width="57.88" height="100.07"/>
      <rect class="cls-1" x="58.75" width="57.88" height="100.07"/>
      <rect class="cls-1" x="117.5" y="100.07" width="57.88" height="100.07"/>
      <rect class="cls-1" x="117.5" width="57.88" height="100.07"/>
      <rect class="cls-1" x="176.25" y="100.07" width="57.88" height="100.07"/>
      <rect class="cls-1" x="176.25" width="57.88" height="100.07"/>
      <rect class="cls-1" x="235" y="100.07" width="57.88" height="100.07"/>
      <rect class="cls-1" x="235" width="57.88" height="100.07"/>
      <rect class="cls-1" x="293.74" y="100.07" width="57.88" height="100.07"/>
      <rect class="cls-1" x="293.74" width="57.88" height="100.07"/>
      <rect class="cls-1" x="352.49" y="100.07" width="57.88" height="100.07"/>
      <rect class="cls-1" x="352.49" width="57.88" height="100.07"/>
      <rect class="cls-1" x="411.24" y="100.07" width="57.88" height="100.07"/>
      <rect class="cls-1" x="411.24" width="57.88" height="100.07"/>
      <rect class="cls-1" x="469.99" y="100.07" width="57.88" height="100.07"/>
      <rect class="cls-1" x="469.99" width="57.88" height="100.07"/>
      <rect class="cls-1" x="528.74" y="100.07" width="57.88" height="100.07"/>
      <rect class="cls-1" x="528.74" width="57.88" height="100.07"/>
      <rect class="cls-1" x="587.49" y="100.07" width="57.88" height="100.07"/>
      <rect class="cls-1" x="587.49" width="57.88" height="100.07"/>
      <rect class="cls-1" x="646.24" y="100.07" width="57.88" height="100.07"/>
      <rect class="cls-1" x="646.24" width="57.88" height="100.07"/>
      <rect class="cls-1" x="704.99" y="100.07" width="57.88" height="100.07"/>
      <rect class="cls-1" x="704.99" width="57.88" height="100.07"/>
      <rect class="cls-1" x="763.74" y="100.07" width="57.88" height="100.07"/>
      <rect class="cls-1" x="763.74" width="57.88" height="100.07"/>
      <rect class="cls-1" x="822.48" y="100.07" width="57.88" height="100.07"/>
      <rect class="cls-1" x="822.48" width="57.88" height="100.07"/>
      <rect class="cls-1" x="881.23" y="100.07" width="57.88" height="100.07"/>
      <rect class="cls-1" x="881.23" width="57.88" height="100.07"/>
      <rect class="cls-1" x="939.98" y="100.07" width="57.88" height="100.07"/>
      <rect class="cls-1" x="939.98" width="57.88" height="100.07"/>
      <rect class="cls-1" x="998.73" y="100.07" width="57.88" height="100.07"/>
      <rect class="cls-1" x="998.73" width="57.88" height="100.07"/>
    </g>
  </g>
</svg>