<?xml version="1.0" encoding="UTF-8"?>
<svg id="Layer_1" data-name="Layer 1" xmlns="http://www.w3.org/2000/svg" viewBox="0 0 1686.48 860.13">
  <defs>
    <style>
      .cls-1 {
        letter-spacing: .02em;
      }

      .cls-2 {
        stroke-width: 1.19px;
      }

      .cls-2, .cls-3, .cls-4, .cls-5, .cls-6, .cls-7, .cls-8, .cls-9, .cls-10, .cls-11, .cls-12, .cls-13, .cls-14, .cls-15, .cls-16, .cls-17 {
        stroke: #231f20;
        stroke-miterlimit: 10;
      }

      .cls-2, .cls-5, .cls-6, .cls-7, .cls-11, .cls-13 {
        fill: #ed1c24;
      }

      .cls-3 {
        stroke-width: 1.19px;
      }

      .cls-3, .cls-4, .cls-8, .cls-10, .cls-12, .cls-14, .cls-15, .cls-18 {
        fill: #1c75bc;
      }

      .cls-4 {
        stroke-width: 1.59px;
      }

      .cls-5 {
        stroke-width: 2.02px;
      }

      .cls-6 {
        stroke-width: .94px;
      }

      .cls-7 {
        stroke-width: .2px;
      }

      .cls-19 {
        letter-spacing: 0em;
      }

      .cls-8 {
        stroke-width: 2.11px;
      }

      .cls-9 {
        stroke-width: 1.37px;
      }

      .cls-9, .cls-16, .cls-20, .cls-21 {
        fill: #fff;
      }

      .cls-11 {
        stroke-width: .34px;
      }

      .cls-12 {
        stroke-width: 1.33px;
      }

      .cls-13 {
        stroke-width: .21px;
      }

      .cls-14 {
        stroke-width: 2.3px;
      }

      .cls-15 {
        stroke-width: 1.08px;
      }

      .cls-16 {
        stroke-width: .18px;
      }

      .cls-22 {
        fill: #ef4136;
      }

      .cls-22, .cls-20 {
        font-family: EurostileExtended-Black, 'EurostileExtended Black';
        font-size: 150px;
        font-weight: 800;
      }

      .cls-17 {
        fill: #8b5e3c;
        stroke-width: .35px;
      }

      .cls-23 {
        fill: #808285;
      }

      .cls-23, .cls-24, .cls-18, .cls-25, .cls-26, .cls-21 {
        stroke-width: 0px;
      }

      .cls-24 {
        fill: #2e3192;
      }

      .cls-25 {
        fill: #c2b59b;
      }

      .cls-26 {
        fill: #939598;
      }
    </style>
  </defs>
  <rect class="cls-26" x="1194.32" y="265.67" width="492.15" height="199.82" rx="12" ry="12"/>
  <rect class="cls-26" x="428.38" y="107.24" width="323.9" height="1181.89" transform="translate(1288.51 107.86) rotate(90)"/>
  <rect class="cls-2" x="963.88" y="2.1" width="65.05" height="858.03"/>
  <rect class="cls-2" x="771.1" y="2.1" width="65.05" height="858.03"/>
  <rect class="cls-8" x="913.43" y="23.37" width="771.64" height="303.41"/>
  <rect class="cls-17" x="337.91" y="844.55" width="57.88" height="111.72"/>
  <rect class="cls-17" x="396.65" y="844.55" width="57.88" height="111.72"/>
  <rect class="cls-17" x="455.4" y="844.55" width="57.88" height="111.72"/>
  <rect class="cls-17" x="514.15" y="844.55" width="57.88" height="111.72"/>
  <rect class="cls-17" x="572.9" y="844.55" width="57.88" height="111.72"/>
  <rect class="cls-17" x="631.65" y="844.55" width="57.88" height="111.72"/>
  <rect class="cls-17" x="690.4" y="844.55" width="57.88" height="111.72"/>
  <rect class="cls-17" x="749.15" y="844.55" width="57.88" height="111.72"/>
  <rect class="cls-17" x="807.9" y="844.55" width="57.88" height="111.72"/>
  <rect class="cls-17" x="866.65" y="844.55" width="57.88" height="111.72"/>
  <rect class="cls-17" x="925.39" y="844.55" width="57.88" height="111.72"/>
  <rect class="cls-17" x="984.14" y="844.55" width="57.88" height="111.72"/>
  <rect class="cls-17" x="1042.89" y="844.55" width="57.88" height="111.72"/>
  <rect class="cls-17" x="1101.64" y="844.55" width="57.88" height="111.72"/>
  <rect class="cls-17" x="1160.39" y="844.55" width="57.88" height="111.72"/>
  <rect class="cls-17" x="1219.14" y="844.55" width="57.88" height="111.72"/>
  <rect class="cls-17" x="1277.89" y="844.55" width="57.88" height="111.72"/>
  <rect class="cls-17" x="1336.64" y="844.55" width="57.88" height="111.72"/>
  <rect class="cls-4" x="913.43" y="326.37" width="440.69" height="303.41"/>
  <text class="cls-22" transform="translate(-1220 161.4)"><tspan class="cls-1" x="0" y="0">K</tspan><tspan x="83.7" y="0">álvin</tspan></text>
  <text class="cls-20" transform="translate(-1220 651.93)"><tspan class="cls-19" x="0" y="0">t</tspan><tspan x="48.75" y="0">ér</tspan></text>
  <rect class="cls-25" x="376.11" y="665.24" width="1026.08" height="194.87"/>
  <rect class="cls-3" x="738.92" y="665.21" width="90.36" height="194.89"/>
  <rect class="cls-10" x="1254.37" y="665.21" width="90.36" height="136.92"/>
  <rect class="cls-10" x="648.57" y="665.21" width="90.36" height="136.92"/>
  <g>
    <rect class="cls-18" x="418.63" y="665.21" width="8.77" height="194.92"/>
    <rect class="cls-24" x="427.4" y="665.21" width="4.16" height="194.92"/>
    <rect class="cls-24" x="427.4" y="665.21" width="4.16" height="194.92"/>
    <rect class="cls-18" x="431.56" y="665.21" width="23.35" height="194.92"/>
    <rect class="cls-24" x="454.91" y="665.21" width="4.16" height="194.92"/>
    <rect class="cls-24" x="454.91" y="665.21" width="4.16" height="194.92"/>
    <rect class="cls-18" x="459.07" y="665.21" width="8.78" height="194.92"/>
  </g>
  <rect class="cls-2" x="1254.37" y="802.13" width="247.66" height="58"/>
  <g>
    <rect class="cls-18" x="715.52" y="665.21" width="8.77" height="194.92"/>
    <rect class="cls-24" x="724.29" y="665.21" width="4.16" height="194.92"/>
    <rect class="cls-24" x="724.29" y="665.21" width="4.16" height="194.92"/>
    <rect class="cls-18" x="728.45" y="665.21" width="23.35" height="194.92"/>
    <rect class="cls-24" x="751.8" y="665.21" width="4.16" height="194.92"/>
    <rect class="cls-24" x="751.8" y="665.21" width="4.16" height="194.92"/>
    <rect class="cls-18" x="755.96" y="665.21" width="8.78" height="194.92"/>
  </g>
  <g>
    <rect class="cls-18" x="1012.4" y="665.21" width="8.77" height="194.92"/>
    <rect class="cls-24" x="1021.17" y="665.21" width="4.16" height="194.92"/>
    <rect class="cls-24" x="1021.17" y="665.21" width="4.16" height="194.92"/>
    <rect class="cls-18" x="1025.33" y="665.21" width="23.35" height="194.92"/>
    <rect class="cls-24" x="1048.68" y="665.21" width="4.16" height="194.92"/>
    <rect class="cls-24" x="1048.68" y="665.21" width="4.16" height="194.92"/>
    <rect class="cls-18" x="1052.84" y="665.21" width="8.78" height="194.92"/>
  </g>
  <g>
    <rect class="cls-18" x="1309.29" y="665.21" width="8.77" height="194.92"/>
    <rect class="cls-24" x="1318.06" y="665.21" width="4.16" height="194.92"/>
    <rect class="cls-24" x="1318.06" y="665.21" width="4.16" height="194.92"/>
    <rect class="cls-18" x="1322.22" y="665.21" width="23.35" height="194.92"/>
    <rect class="cls-24" x="1345.57" y="665.21" width="4.16" height="194.92"/>
    <rect class="cls-24" x="1345.57" y="665.21" width="4.16" height="194.92"/>
    <rect class="cls-18" x="1349.73" y="665.21" width="8.78" height="194.92"/>
  </g>
  <rect class="cls-10" x="467.85" y="665.21" width="90.36" height="136.92"/>
  <rect class="cls-10" x="558.21" y="665.21" width="90.36" height="136.92"/>
  <rect class="cls-2" x="467.85" y="802.13" width="247.66" height="58"/>
  <rect class="cls-7" x="422.67" y="666.04" width="49.64" height="7.99"/>
  <rect class="cls-16" x="427.14" y="670.04" width="40.72" height="7.99"/>
  <rect class="cls-7" x="506.47" y="666.04" width="49.64" height="7.99"/>
  <rect class="cls-16" x="510.93" y="670.04" width="40.72" height="7.99"/>
  <rect class="cls-7" x="590.26" y="666.04" width="49.64" height="7.99"/>
  <rect class="cls-16" x="594.72" y="670.04" width="40.72" height="7.99"/>
  <rect class="cls-7" x="674.05" y="666.04" width="49.64" height="7.99"/>
  <rect class="cls-16" x="678.52" y="670.04" width="40.72" height="7.99"/>
  <rect class="cls-7" x="757.85" y="666.04" width="49.64" height="7.99"/>
  <rect class="cls-16" x="762.31" y="670.04" width="40.72" height="7.99"/>
  <rect class="cls-7" x="841.64" y="666.04" width="49.64" height="7.99"/>
  <rect class="cls-16" x="846.1" y="670.04" width="40.72" height="7.99"/>
  <rect class="cls-7" x="925.43" y="666.04" width="49.64" height="7.99"/>
  <rect class="cls-16" x="929.89" y="670.04" width="40.72" height="7.99"/>
  <rect class="cls-7" x="1009.22" y="666.04" width="49.64" height="7.99"/>
  <rect class="cls-16" x="1013.69" y="670.04" width="40.72" height="7.99"/>
  <rect class="cls-7" x="1093.02" y="666.04" width="49.64" height="7.99"/>
  <rect class="cls-16" x="1097.48" y="670.04" width="40.72" height="7.99"/>
  <rect class="cls-7" x="1176.81" y="666.04" width="49.64" height="7.99"/>
  <rect class="cls-16" x="1181.27" y="670.04" width="40.72" height="7.99"/>
  <rect class="cls-7" x="1260.6" y="666.04" width="49.64" height="7.99"/>
  <rect class="cls-16" x="1265.06" y="670.04" width="40.72" height="7.99"/>
  <rect class="cls-7" x="1344.39" y="666.04" width="49.64" height="7.99"/>
  <rect class="cls-16" x="1348.86" y="670.04" width="40.72" height="7.99"/>
  <polyline class="cls-13" points="783.05 19.04 778.26 30.66 778.26 50.01 833.38 50.01 833.38 30.66 828.59 19.04 783.05 19.04"/>
  <polyline class="cls-5" points="612.09 326.48 571.33 449.83 571.33 655.23 1040.31 655.23 1040.31 449.83 999.55 326.48 612.09 326.48"/>
  <polyline class="cls-9" points="659.12 455.67 628.26 530.55 628.26 655.23 983.38 655.23 983.38 530.55 952.51 455.67 659.12 455.67"/>
  <rect class="cls-15" x="499.81" y="445.31" width="71.52" height="209.92"/>
  <rect class="cls-15" x="432.09" y="445.31" width="71.52" height="209.92"/>
  <rect class="cls-12" x="604.76" y="234.34" width="108.84" height="209.92"/>
  <rect class="cls-14" x="804.59" y="23.37" width="108.84" height="631.86"/>
  <rect class="cls-14" x="701.54" y="23.37" width="108.84" height="631.86"/>
  <rect class="cls-12" x="501.71" y="234.34" width="108.84" height="209.92"/>
  <polyline class="cls-11" points="769.06 0 761.32 18.76 761.32 50.01 850.31 50.01 850.31 18.76 842.58 0 769.06 0"/>
  <polygon class="cls-14" points="761.32 50.01 571.33 445.31 713.6 444.26 761.32 50.01"/>
  <rect class="cls-23" x="777.51" y="595.18" width="197.43" height="22.07"/>
  <rect class="cls-23" x="777.51" y="563.3" width="197.43" height="22.07"/>
  <rect class="cls-23" x="777.51" y="539.04" width="197.43" height="14.45"/>
  <rect class="cls-23" x="777.51" y="518.16" width="197.43" height="14.45"/>
  <rect class="cls-23" x="777.51" y="497.28" width="197.43" height="14.45"/>
  <rect class="cls-23" x="777.51" y="476.4" width="197.43" height="14.45"/>
  <rect class="cls-23" x="777.51" y="455.52" width="197.43" height="14.45"/>
  <rect class="cls-23" x="777.51" y="434.64" width="197.43" height="14.45"/>
  <rect class="cls-23" x="777.51" y="413.77" width="197.43" height="14.45"/>
  <rect class="cls-23" x="777.51" y="392.89" width="197.43" height="14.45"/>
  <rect class="cls-23" x="777.51" y="372.01" width="197.43" height="14.45"/>
  <rect class="cls-23" x="777.51" y="355.61" width="197.43" height="9.98"/>
  <rect class="cls-23" x="777.51" y="341.2" width="197.43" height="9.98"/>
  <rect class="cls-23" x="777.51" y="326.78" width="197.43" height="9.98"/>
  <rect class="cls-23" x="777.51" y="312.37" width="197.43" height="9.98"/>
  <rect class="cls-23" x="777.51" y="297.96" width="197.43" height="9.98"/>
  <polygon class="cls-21" points="854.39 605.31 785.54 245.7 803 245.7 974.94 605.31 854.39 605.31"/>
  <rect class="cls-21" x="846.25" y="605.31" width="124.92" height="43.83"/>
  <rect class="cls-21" x="427.59" y="603.29" width="349.56" height="22.07"/>
  <rect class="cls-21" x="427.59" y="571.41" width="349.56" height="22.07"/>
  <rect class="cls-21" x="427.59" y="547.14" width="349.56" height="14.45"/>
  <rect class="cls-21" x="427.59" y="526.26" width="349.56" height="14.45"/>
  <rect class="cls-21" x="427.59" y="505.38" width="349.56" height="14.45"/>
  <rect class="cls-21" x="427.59" y="484.51" width="349.56" height="14.45"/>
  <rect class="cls-21" x="427.59" y="463.63" width="349.56" height="14.45"/>
  <rect class="cls-21" x="427.59" y="442.75" width="349.56" height="14.45"/>
  <rect class="cls-21" x="427.59" y="421.87" width="349.56" height="14.45"/>
  <rect class="cls-21" x="427.59" y="380.11" width="349.56" height="14.45"/>
  <rect class="cls-21" x="427.59" y="363.71" width="349.56" height="9.98"/>
  <rect class="cls-21" x="427.59" y="349.3" width="349.56" height="9.98"/>
  <rect class="cls-21" x="427.59" y="334.89" width="349.56" height="9.98"/>
  <rect class="cls-21" x="427.59" y="320.48" width="349.56" height="9.98"/>
  <rect class="cls-21" x="427.59" y="306.06" width="349.56" height="9.98"/>
  <rect class="cls-21" x="549.29" y="613.41" width="221.18" height="43.83"/>
  <rect class="cls-2" x="578.33" y="2.1" width="65.05" height="858.03"/>
  <rect class="cls-2" x="192.78" y="2.1" width="65.05" height="858.03"/>
  <rect class="cls-6" x="1156.65" y="325.46" width="65.05" height="534.67"/>
  <rect class="cls-6" x="1349.43" y="325.46" width="65.05" height="534.67"/>
  <rect class="cls-21" x="427.59" y="400.99" width="349.56" height="14.45"/>
  <polygon class="cls-21" points="563.71 613.41 441.8 253.81 472.72 253.81 777.15 613.41 563.71 613.41"/>
  <g>
    <rect class="cls-26" x="1414.47" y="777.56" width="231.87" height="40.88"/>
    <rect class="cls-26" x="1453.2" y="818.44" width="231.87" height="40.88"/>
  </g>
  <rect class="cls-26" x="45.32" y="34.52" width="492.15" height="199.82" rx="12" ry="12"/>
</svg>